/* XPM */
static char *ambience[] = {
/* width height num_colors chars_per_pixel */
"    29    17       28            1",
/* colors */
". c #266828",
"# c #276929",
"a c #276a25",
"b c #276a27",
"c c #286a2a",
"d c #286b26",
"e c #286b28",
"f c #296b2b",
"g c #296c27",
"h c #296c29",
"i c #2a6c2c",
"j c #2a6d28",
"k c #2a6d2a",
"l c #2b6d2d",
"m c #2b6e2b",
"n c #2c6e2e",
"o c #2c6f2a",
"p c #2c6f2c",
"q c #2d6f2f",
"r c #2d702d",
"s c #2e7030",
"t c #2f7131",
"u c #307232",
"v c #317333",
"w c #327434",
"x c #337535",
"y c #347636",
"z c #357737",
/* pixels */
"uuuuuuuuvvtqlf#.lllllllliilnn",
"ttttttttvutqnifcnnnlliiifiiln",
"ttttttttvutsqnliqqnlliffffiil",
"ssssssssuuttsqnntsqnifc#ccfii",
"qqqqqqqquuttssqqttqnif###ccfi",
"qqqqqqqquutttsssutsnic#.##cff",
"lnqsuvwxvutsnlifutsnic#.#####",
"llnstvwwvvusqliittqnif#######",
"ilnqtuvwwvutqnlitsqnifc#ccccc",
"iilqsuvvwwvtsnllqqnllifffffff",
"ffinqtuuxxwutqnnnnnlliiifffff",
"cfilqstuyxwvtsqnlllllllliiiii",
"ccflnsttyyxvusqqillllllnlllll",
"#cfinqstzyxwutsqikimlpnplmlml",
"llnqqsttxxvusnlihghdedbahghgh",
"lnnqssttvvutsqnpkjjjjjggggggg",
"nnqsstuuttsssssrpooooooojjjjj"
};
